# Blender 4.5.4 LTS
# www.blender.org
mtllib Car8.mtl
o Car8
v -1.309855 3.048034 -3.571357
v -1.309856 1.926617 2.150337
v -1.309856 3.048019 1.824992
v -1.187148 3.195727 1.778863
v 0.000000 1.926611 2.150337
v 0.000000 3.195729 1.778849
v -1.309855 0.482516 -3.571357
v 0.000000 3.195729 -3.571357
v 0.000000 1.500345 2.960600
v -1.309856 0.896921 -2.462884
v -1.309856 1.500350 2.960601
v -1.309857 1.122567 2.195899
v -1.187147 3.195729 -3.571357
v 0.000000 0.482513 -3.571362
v -0.667850 1.122567 2.195899
v -0.667850 0.920245 2.434727
v -1.309857 0.920245 2.434727
v -1.309857 0.574254 2.595972
v -1.309857 0.574253 2.960601
v -1.309856 0.896911 -1.457872
v -0.667849 0.896922 -2.462884
v -0.667850 0.482509 1.286404
v -0.667850 0.903531 1.519617
v -1.309856 0.903531 1.519617
v -0.667849 0.896911 -1.457872
v -1.309855 0.482509 -2.578799
v -0.667849 0.482509 -2.578799
v 0.000000 0.574247 2.960600
v -1.309856 0.482509 -1.346276
v -1.309857 0.482509 1.286404
v -1.309856 1.112957 1.744848
v -1.309856 1.153942 1.984106
v -0.667849 1.112958 1.744848
v -0.667849 1.153943 1.984106
v -0.667849 0.482508 -1.346276
v -0.667850 0.574254 2.595972
v -1.583251 2.436496 1.745782
v -1.583250 2.103992 1.745781
v -1.583251 2.103992 1.841485
v -1.583252 2.436496 1.841484
v -1.373082 2.436496 1.745782
v -1.373082 2.436496 1.841484
v -1.373082 2.103993 1.841485
v -1.373081 2.103993 1.745781
v -1.445226 2.773315 1.796345
v -1.507837 2.836599 1.778271
v -1.306217 2.836416 1.778273
v -1.306217 2.773805 1.796346
v -1.507837 2.836599 1.814420
v -1.306217 2.836416 1.814420
v -1.445221 2.436160 1.796345
v -1.507832 2.436159 1.778271
v -1.507832 2.436159 1.814420
v -1.445225 1.971373 1.796345
v -1.306216 1.919835 1.796346
v -1.306217 1.857224 1.778272
v -1.507836 1.932598 1.778271
v -1.306216 1.857224 1.814420
v -1.507836 1.932598 1.814419
v -1.507831 2.106410 1.778271
v -1.445220 2.106410 1.796345
v -1.507831 2.106410 1.814420
v 1.309856 3.048034 -3.571357
v 1.309856 3.048019 1.824992
v 1.309856 1.926617 2.150337
v 1.187148 3.195728 1.778863
v 1.309856 0.482516 -3.571358
v 1.309857 0.896922 -2.462885
v 1.309856 1.500350 2.960601
v 1.309857 1.122567 2.195899
v 1.187148 3.195729 -3.571357
v 0.667851 1.122567 2.195899
v 1.309857 0.920245 2.434727
v 0.667851 0.920245 2.434727
v 1.309858 0.574253 2.960601
v 1.309858 0.574254 2.595972
v 1.309857 0.896912 -1.457872
v 0.667850 0.896922 -2.462884
v 0.667851 0.482509 1.286404
v 1.309857 0.903531 1.519617
v 0.667850 0.903531 1.519617
v 0.667850 0.896911 -1.457872
v 0.667850 0.482509 -2.578799
v 1.309856 0.482509 -2.578799
v 1.309857 0.482509 -1.346276
v 1.309857 0.482509 1.286404
v 1.309857 1.112958 1.744848
v 1.309857 1.153943 1.984106
v 0.667850 1.112958 1.744848
v 0.667850 1.153943 1.984106
v 0.667850 0.482508 -1.346276
v 0.667851 0.574254 2.595972
v 1.583252 2.436496 1.745782
v 1.583252 2.436496 1.841484
v 1.583251 2.103993 1.841485
v 1.583251 2.103993 1.745781
v 1.373082 2.436496 1.745782
v 1.373082 2.103993 1.745781
v 1.373082 2.103993 1.841485
v 1.373083 2.436496 1.841484
v 1.445226 2.773315 1.796345
v 1.306218 2.773806 1.796346
v 1.306218 2.836417 1.778273
v 1.507837 2.836600 1.778271
v 1.306217 2.836417 1.814420
v 1.507837 2.836600 1.814420
v 1.507832 2.436160 1.778271
v 1.445221 2.436160 1.796345
v 1.507832 2.436160 1.814420
v 1.445225 1.971373 1.796345
v 1.507836 1.932599 1.778271
v 1.306217 1.857224 1.778272
v 1.306217 1.919835 1.796346
v 1.507836 1.932599 1.814419
v 1.306217 1.857224 1.814420
v 1.445221 2.106411 1.796345
v 1.507832 2.106411 1.778271
v 1.507832 2.106411 1.814420
v -1.358631 0.482520 3.073875
v -1.358631 0.742983 3.073878
v -1.380004 0.742983 2.888490
v -1.380004 0.482521 2.888489
v -1.177619 0.482521 2.958956
v -1.177619 0.482520 3.124777
v -1.177619 0.742983 2.958956
v -1.177619 0.742982 3.124777
v 0.000000 0.482522 2.958972
v 0.000000 0.482522 3.124777
v 0.000000 0.742982 3.124777
v 0.000000 0.742983 2.958973
v -1.309864 0.642806 -3.571366
v -1.309864 0.642806 -3.709544
v -1.309855 0.482523 -3.709546
v -1.019203 0.482522 -3.767357
v -1.019203 0.482522 -3.571365
v -1.019203 0.642807 -3.767345
v -1.019203 0.642806 -3.571366
v 0.000000 0.482523 -3.767346
v 0.000000 0.642807 -3.767346
v 0.000000 0.642807 -3.571366
v 1.358631 0.482522 3.073875
v 1.380005 0.482522 2.888489
v 1.380005 0.742984 2.888490
v 1.358632 0.742984 3.073878
v 1.177620 0.482522 3.124777
v 1.177620 0.482522 2.958956
v 1.177620 0.742984 2.958956
v 1.177620 0.742983 3.124777
v 1.309855 0.482523 -3.709547
v 1.309864 0.642807 -3.709545
v 1.309864 0.642807 -3.571366
v 1.019203 0.482523 -3.571366
v 1.019204 0.482523 -3.767357
v 1.019204 0.642807 -3.767346
v 1.019203 0.642807 -3.571366
vn -1.0000 -0.0000 -0.0000
vn -0.7692 0.6390 -0.0000
vn 0.0011 0.2798 0.9601
vn -0.0000 0.2786 0.9604
vn -0.0000 0.2799 0.9600
vn -0.0000 0.2809 0.9597
vn -0.0000 0.2981 0.9545
vn -0.0000 -0.0000 -1.0000
vn -0.0000 0.8850 0.4656
vn -0.0000 1.0000 -0.0000
vn -0.0000 -0.7630 -0.6464
vn -0.0000 -1.0000 -0.0000
vn -0.0000 -0.4846 0.8748
vn -0.0000 -0.2694 0.9630
vn -0.0000 -0.0000 1.0000
vn -0.0000 -0.4224 -0.9064
vn -0.0000 -0.2600 -0.9656
vn -0.0000 -0.9856 0.1688
vn -0.0000 -0.7323 0.6809
vn -0.0000 -0.9892 -0.1465
vn 1.0000 -0.0000 -0.0000
vn 0.0003 -0.2759 -0.9612
vn 0.0009 1.0000 -0.0000
vn 0.0002 -0.2759 0.9612
vn 0.2773 -0.0000 -0.9608
vn 0.2774 -0.0000 0.9608
vn 0.1032 0.2769 -0.9553
vn -0.3502 -0.9367 -0.0000
vn 0.1032 0.2769 0.9553
vn 0.7692 0.6390 -0.0000
vn -0.0011 0.2798 0.9601
vn -0.0003 -0.2759 -0.9612
vn -0.0009 1.0000 -0.0000
vn -0.0002 -0.2759 0.9612
vn -0.2773 -0.0000 -0.9608
vn -0.2774 -0.0000 0.9608
vn -0.1032 0.2769 -0.9553
vn 0.3502 -0.9367 -0.0000
vn -0.1032 0.2769 0.9553
vn -0.0000 -0.9976 0.0699
vn -0.9934 -0.0000 0.1145
vn 0.3288 -0.0000 -0.9444
vn -0.2707 -0.0000 0.9627
vn -1.0000 -0.0001 -0.0000
vn -0.1951 -0.0000 -0.9808
vn 0.9934 -0.0000 0.1145
vn -0.3288 -0.0000 -0.9444
vn 0.2707 -0.0000 0.9627
vn 1.0000 -0.0001 -0.0000
vn 0.1951 -0.0000 -0.9808
vt 0.045869 0.389930
vt 0.859745 0.230416
vt 0.813467 0.389928
vt 0.806905 0.410939
vt 0.574999 0.952496
vt 0.575000 0.792984
vt 0.761319 0.792983
vt 0.761319 0.973508
vt 0.592454 0.973507
vt 0.975000 0.587641
vt 0.974996 0.952571
vt 0.788676 0.973578
vt 0.536319 0.859746
vt 0.536319 0.975001
vt 0.350000 0.975000
vt 0.203543 0.083948
vt 0.975000 0.169782
vt 0.866226 0.116044
vt 0.045869 0.410939
vt 0.045869 0.415621
vt 0.806903 0.584486
vt 0.788682 0.587638
vt 0.858166 0.023369
vt 0.876606 0.023369
vt 0.876606 0.072940
vt 0.350000 0.859745
vt 0.900198 0.087265
vt 0.923134 0.038050
vt 0.975000 0.038050
vt 0.878165 0.071908
vt 0.800566 0.071908
vt 0.800566 0.022338
vt 0.816287 0.018435
vt 0.848796 0.018435
vt 0.848796 0.068006
vt 0.878165 0.022338
vt 0.852865 0.072222
vt 0.820868 0.072222
vt 0.820868 0.022651
vt 0.187055 0.025000
vt 0.045869 0.584486
vt 0.957541 0.973579
vt 0.045869 0.025000
vt 0.575000 0.750000
vt 0.575000 0.618268
vt 0.761319 0.618268
vt 0.761319 0.750000
vt 0.855261 0.074448
vt 0.828546 0.074448
vt 0.828546 0.024878
vt 0.845699 0.070344
vt 0.813701 0.070344
vt 0.813701 0.020773
vt 0.816287 0.068006
vt 0.802067 0.114677
vt 0.836100 0.120507
vt 0.841812 0.072940
vt 0.823339 0.072940
vt 0.823339 0.023369
vt 0.841812 0.023369
vt 0.845699 0.020773
vt 0.852865 0.022652
vt 0.855261 0.024878
vt 0.858166 0.072940
vt 0.805948 0.023369
vt 0.805948 0.072940
vt 0.770029 0.084888
vt 0.346499 0.083946
vt 0.736856 0.025000
vt 0.362373 0.025000
vt 0.790487 0.025493
vt 0.885653 0.025493
vt 0.877036 0.057490
vt 0.799437 0.057491
vt 0.888742 0.030011
vt 0.876292 0.056726
vt 0.805634 0.055435
vt 0.787627 0.022927
vt 0.841498 0.074770
vt 0.823025 0.071606
vt 0.857851 0.072348
vt 0.384076 0.725067
vt 0.347869 0.725067
vt 0.347869 0.761274
vt 0.384076 0.761274
vt 0.347869 0.836274
vt 0.447869 0.836274
vt 0.447869 0.761274
vt 0.370973 0.728586
vt 0.380533 0.728586
vt 0.380533 0.757267
vt 0.370973 0.757267
vt 0.351852 0.728586
vt 0.361413 0.728586
vt 0.361413 0.757267
vt 0.351852 0.757267
vt 0.404481 0.717954
vt 0.390686 0.717954
vt 0.390686 0.661384
vt 0.433182 0.717954
vt 0.446977 0.717954
vt 0.404481 0.661384
vt 0.433182 0.661384
vt 0.446977 0.661384
vt 0.433182 0.746093
vt 0.404481 0.746093
vt 0.404481 0.634899
vt 0.433182 0.634899
vt 0.446977 0.746093
vt 0.446977 0.753928
vt 0.390686 0.746093
vt 0.418831 0.753928
vt 0.390686 0.753928
vt 0.390686 0.634899
vt 0.390686 0.613572
vt 0.446977 0.613572
vt 0.418831 0.613572
vt 0.446977 0.634899
vt 0.950000 0.522913
vt 0.911944 0.522912
vt 0.911944 0.550000
vt 0.950000 0.550000
vt 0.976952 0.527046
vt 0.974212 0.497371
vt 0.950001 0.496465
vt 0.871593 0.068002
vt 0.871593 0.029946
vt 0.842023 0.029946
vt 0.842023 0.068002
vt 0.885000 0.527095
vt 0.911944 0.522913
vt 0.911944 0.496465
vt 0.887735 0.497415
vt 0.974212 0.325307
vt 0.950003 0.324402
vt 0.911946 0.324402
vt 0.887739 0.325351
vt 0.480000 0.830001
vt 0.503420 0.830000
vt 0.503420 0.809811
vt 0.480000 0.809810
vt 0.532055 0.809810
vt 0.511864 0.809810
vt 0.503417 0.767343
vt 0.532054 0.767343
vt 0.503420 0.809812
vt 0.503420 0.767343
vt 0.480000 0.767343
vt 0.511864 0.810867
vt 0.532053 0.810867
vt 0.532054 0.768398
vt 0.503419 0.768398
vt 0.503419 0.618426
vt 0.532054 0.618426
vt 0.480000 0.618426
vt 0.805934 0.068002
vt 0.805934 0.029946
s 1
usemtl car8_mat
f 1/1/1 2/2/1 3/3/1
f 1/1/2 3/3/2 4/4/2
f 3/5/3 2/6/4 5/7/5
f 5/7/5 6/8/6 3/5/3
f 6/8/7 4/9/7 3/5/7
f 7/10/8 1/11/8 8/12/8
f 9/13/9 5/14/9 2/15/9
f 10/16/1 2/2/1 1/1/1
f 11/17/1 2/2/1 12/18/1
f 4/4/2 13/19/2 1/1/2
f 13/20/10 4/4/10 6/21/10
f 8/12/8 14/22/8 7/10/8
f 15/23/11 16/24/11 17/25/11
f 2/15/9 11/26/9 9/13/9
f 17/27/1 18/28/1 19/29/1
f 20/30/12 10/31/12 21/32/12
f 22/33/13 23/34/13 24/35/13
f 21/32/12 25/36/12 20/30/12
f 10/37/14 26/38/14 27/39/14
f 26/40/1 10/16/1 1/1/1
f 6/21/10 8/41/10 13/20/10
f 1/11/8 13/42/8 8/12/8
f 7/43/1 26/40/1 1/1/1
f 11/44/15 19/45/15 28/46/15
f 28/46/15 9/47/15 11/44/15
f 18/48/16 17/49/16 16/50/16
f 29/51/17 20/52/17 25/53/17
f 24/35/13 30/54/13 22/33/13
f 31/55/1 32/56/1 2/2/1
f 32/57/18 31/58/18 33/59/18
f 33/59/18 34/60/18 32/57/18
f 25/53/17 35/61/17 29/51/17
f 27/39/14 21/62/14 10/37/14
f 16/50/16 36/63/16 18/48/16
f 17/25/11 12/64/11 15/23/11
f 23/65/19 33/59/19 31/58/19
f 31/58/19 24/66/19 23/65/19
f 24/67/1 31/55/1 2/2/1
f 34/60/20 15/23/20 12/64/20
f 32/56/1 12/18/1 2/2/1
f 12/64/20 32/57/20 34/60/20
f 20/68/1 24/67/1 2/2/1
f 10/16/1 20/68/1 2/2/1
f 30/69/1 20/68/1 29/70/1
f 20/68/1 30/69/1 24/67/1
f 11/17/1 12/18/1 17/27/1
f 17/27/1 19/29/1 11/17/1
f 27/71/1 35/72/1 25/73/1 21/74/1
f 36/75/1 16/76/1 23/77/1 22/78/1
f 34/79/1 33/80/1 23/77/1 16/76/1
f 15/81/1 34/79/1 16/76/1
f 37/82/1 38/83/1 39/84/1 40/85/1
f 41/83/21 42/84/21 43/85/21 44/82/21
f 37/84/8 41/86/8 44/87/8 38/88/8
f 39/83/15 43/84/15 42/85/15 40/82/15
f 40/83/10 42/84/10 41/85/10 37/82/10
f 39/83/12 38/82/12 44/85/12 43/84/12
f 45/89/22 46/90/22 47/91/22 48/92/22
f 46/93/23 49/94/23 50/95/23 47/96/23
f 49/94/24 45/89/24 48/92/24 50/95/24
f 46/90/25 45/89/25 51/89/25 52/90/25
f 49/94/1 46/93/1 52/93/1 53/94/1
f 45/89/26 49/94/26 53/94/26 51/89/26
f 54/89/27 55/92/27 56/91/27 57/90/27
f 57/93/28 56/96/28 58/95/28 59/94/28
f 59/94/29 58/95/29 55/92/29 54/89/29
f 57/90/25 60/90/25 61/89/25 54/89/25
f 59/94/1 62/94/1 60/93/1 57/93/1
f 54/89/26 61/89/26 62/94/26 59/94/26
f 63/1/21 64/3/21 65/2/21
f 63/1/30 66/4/30 64/3/30
f 64/5/31 5/7/5 65/6/4
f 5/7/5 64/5/31 6/8/6
f 6/8/7 64/5/7 66/9/7
f 67/10/8 8/12/8 63/11/8
f 9/13/9 65/15/9 5/14/9
f 68/16/21 63/1/21 65/2/21
f 69/17/21 70/18/21 65/2/21
f 66/4/30 63/1/30 71/19/30
f 71/20/10 6/21/10 66/4/10
f 8/12/8 67/10/8 14/22/8
f 72/23/11 73/25/11 74/24/11
f 65/15/9 9/13/9 69/26/9
f 73/27/21 75/29/21 76/28/21
f 77/30/12 78/32/12 68/31/12
f 79/33/13 80/35/13 81/34/13
f 78/32/12 77/30/12 82/36/12
f 68/37/14 83/39/14 84/38/14
f 84/40/21 63/1/21 68/16/21
f 6/21/10 71/20/10 8/41/10
f 63/11/8 8/12/8 71/42/8
f 67/43/21 63/1/21 84/40/21
f 69/44/15 28/46/15 75/45/15
f 28/46/15 69/44/15 9/47/15
f 76/48/16 74/50/16 73/49/16
f 85/51/17 82/53/17 77/52/17
f 80/35/13 79/33/13 86/54/13
f 87/55/21 65/2/21 88/56/21
f 88/57/18 89/59/18 87/58/18
f 89/59/18 88/57/18 90/60/18
f 82/53/17 85/51/17 91/61/17
f 83/39/14 68/37/14 78/62/14
f 74/50/16 76/48/16 92/63/16
f 73/25/11 72/23/11 70/64/11
f 81/65/19 87/58/19 89/59/19
f 87/58/19 81/65/19 80/66/19
f 80/67/21 65/2/21 87/55/21
f 90/60/20 70/64/20 72/23/20
f 88/56/21 65/2/21 70/18/21
f 70/64/20 90/60/20 88/57/20
f 77/68/21 65/2/21 80/67/21
f 68/16/21 65/2/21 77/68/21
f 86/69/21 85/70/21 77/68/21
f 77/68/21 80/67/21 86/69/21
f 69/17/21 73/27/21 70/18/21
f 73/27/21 69/17/21 75/29/21
f 83/71/21 78/74/21 82/73/21 91/72/21
f 92/75/21 79/78/21 81/77/21 74/76/21
f 81/77/21 89/80/21 90/79/21 74/76/21
f 72/81/21 74/76/21 90/79/21
f 93/82/21 94/85/21 95/84/21 96/83/21
f 97/83/1 98/82/1 99/85/1 100/84/1
f 93/84/8 96/88/8 98/87/8 97/86/8
f 95/83/15 94/82/15 100/85/15 99/84/15
f 94/83/10 93/82/10 97/85/10 100/84/10
f 95/83/12 99/84/12 98/85/12 96/82/12
f 101/89/32 102/92/32 103/91/32 104/90/32
f 104/93/33 103/96/33 105/95/33 106/94/33
f 106/94/34 105/95/34 102/92/34 101/89/34
f 104/90/35 107/90/35 108/89/35 101/89/35
f 106/94/21 109/94/21 107/93/21 104/93/21
f 101/89/36 108/89/36 109/94/36 106/94/36
f 110/89/37 111/90/37 112/91/37 113/92/37
f 111/93/38 114/94/38 115/95/38 112/96/38
f 114/94/39 110/89/39 113/92/39 115/95/39
f 111/90/35 110/89/35 116/89/35 117/90/35
f 114/94/21 111/93/21 117/93/21 118/94/21
f 110/89/36 114/94/36 118/94/36 116/89/36
f 22/97/12 30/98/12 29/99/12 79/100/12
f 86/101/12 79/100/12 29/99/12 35/102/12
f 86/101/12 35/102/12 91/103/12 85/104/12
f 92/105/40 36/106/40 22/97/40 79/100/40
f 27/107/12 83/108/12 91/103/12 35/102/12
f 92/105/12 76/109/12 75/110/12 36/106/12
f 18/111/12 36/106/12 75/110/12 28/112/12
f 28/112/12 19/113/12 18/111/12
f 27/107/12 26/114/12 7/115/12 83/108/12
f 67/116/12 83/108/12 7/115/12 14/117/12
f 67/116/12 84/118/12 83/108/12
f 119/119/41 120/120/41 121/121/41 122/122/41
f 119/119/12 122/123/12 123/124/12 124/125/12
f 122/126/42 121/127/42 125/128/42 123/129/42
f 121/130/10 120/131/10 126/132/10 125/133/10
f 120/131/43 119/119/43 124/125/43 126/132/43
f 123/124/12 127/134/12 128/135/12 124/125/12
f 126/132/10 129/136/10 130/137/10 125/133/10
f 124/125/15 128/135/15 129/136/15 126/132/15
f 7/138/44 131/139/44 132/140/44 133/141/44
f 7/142/12 133/143/12 134/144/12 135/145/12
f 133/141/45 132/146/45 136/147/45 134/148/45
f 132/149/10 131/150/10 137/151/10 136/152/10
f 134/144/12 138/153/12 14/154/12 135/145/12
f 136/147/8 139/153/8 138/155/8 134/148/8
f 137/151/10 140/154/10 139/153/10 136/152/10
f 127/156/8 123/129/8 125/128/8 130/157/8
f 141/119/46 142/122/46 143/121/46 144/120/46
f 141/119/12 145/125/12 146/124/12 142/123/12
f 142/126/47 146/129/47 147/128/47 143/127/47
f 143/130/10 147/133/10 148/132/10 144/131/10
f 144/131/48 148/132/48 145/125/48 141/119/48
f 146/124/12 145/125/12 128/135/12 127/134/12
f 148/132/10 147/133/10 130/137/10 129/136/10
f 145/125/15 148/132/15 129/136/15 128/135/15
f 67/138/49 149/141/49 150/140/49 151/139/49
f 67/142/12 152/145/12 153/144/12 149/143/12
f 149/141/50 153/148/50 154/147/50 150/146/50
f 150/149/10 154/152/10 155/151/10 151/150/10
f 153/144/12 152/145/12 14/154/12 138/153/12
f 154/147/8 153/148/8 138/155/8 139/153/8
f 155/151/10 154/152/10 139/153/10 140/154/10
f 127/156/8 130/157/8 147/128/8 146/129/8
