# Blender 4.5.4 LTS
# www.blender.org
mtllib Wheel1.mtl
o Car.001
v -0.136816 0.004002 -0.458577
v -0.136816 0.327093 -0.321433
v 0.136815 0.327093 -0.321433
v 0.136815 0.004002 -0.458577
v -0.136816 0.458577 0.004002
v 0.136815 0.458577 0.004002
v -0.136816 0.321433 0.327093
v 0.136815 0.321433 0.327093
v -0.136816 -0.004002 0.458577
v 0.136815 -0.004002 0.458577
v -0.136816 -0.327092 0.321433
v 0.136815 -0.327093 0.321433
v -0.136816 -0.458577 -0.004002
v 0.136815 -0.458577 -0.004002
v -0.136815 -0.321433 -0.327092
v 0.136815 -0.321433 -0.327092
vn -0.0000 0.3907 -0.9205
vn -0.0000 0.9272 -0.3746
vn -0.0000 0.9205 0.3907
vn -0.0000 0.3746 0.9272
vn -0.0000 -0.3907 0.9205
vn -0.0000 -0.9272 0.3746
vn -0.0000 -0.9205 -0.3907
vn -0.0000 -0.3746 -0.9272
vn -1.0000 -0.0000 -0.0000
vn 1.0000 -0.0000 -0.0000
vt 0.094859 0.660001
vt 0.057429 0.660000
vt 0.057430 0.610000
vt 0.094859 0.610001
vt 0.020000 0.660000
vt 0.020000 0.610000
vt 0.319437 0.660002
vt 0.282007 0.660002
vt 0.282007 0.610002
vt 0.319437 0.610002
vt 0.244578 0.660002
vt 0.244578 0.610002
vt 0.207148 0.660001
vt 0.207148 0.610001
vt 0.169718 0.660001
vt 0.169719 0.610001
vt 0.132289 0.660001
vt 0.132289 0.610001
vt 0.309437 0.830000
vt 0.265585 0.724133
vt 0.159718 0.680281
vt 0.159718 0.979719
vt 0.010000 0.830000
vt 0.053852 0.724133
vt 0.053852 0.935867
vt 0.265585 0.935867
s 1
usemtl car_mat
f 1/1/1 2/2/1 3/3/1 4/4/1
f 2/2/2 5/5/2 6/6/2 3/3/2
f 5/7/3 7/8/3 8/9/3 6/10/3
f 7/8/4 9/11/4 10/12/4 8/9/4
f 9/11/5 11/13/5 12/14/5 10/12/5
f 11/13/6 13/15/6 14/16/6 12/14/6
f 13/15/7 15/17/7 16/18/7 14/16/7
f 15/17/8 1/1/8 4/4/8 16/18/8
f 13/19/9 11/20/9 9/21/9 1/22/9
f 5/23/9 1/22/9 9/21/9 7/24/9
f 5/23/9 2/25/9 1/22/9
f 15/26/9 13/19/9 1/22/9
f 3/25/10 6/23/10 8/24/10 16/26/10
f 12/20/10 16/26/10 8/24/10 10/21/10
f 12/20/10 14/19/10 16/26/10
f 4/22/10 3/25/10 16/26/10
