# Blender 4.5.4 LTS
# www.blender.org
mtllib Wheel4.mtl
o Car4.001
v 0.195165 0.373802 -0.367334
v -0.195164 0.373802 -0.367334
v -0.195164 0.524062 0.004574
v 0.195165 0.524062 0.004573
v -0.195164 0.367334 0.373802
v 0.195165 0.367334 0.373802
v -0.195166 -0.004573 0.524063
v 0.195165 -0.004573 0.524063
v -0.195164 -0.373802 0.367334
v 0.195165 -0.373802 0.367334
v -0.195164 -0.524062 -0.004573
v 0.195165 -0.524062 -0.004573
v -0.195164 -0.367335 -0.373802
v 0.195165 -0.367334 -0.373801
v -0.195164 0.004574 -0.524063
v 0.195165 0.004574 -0.524062
vn -0.0000 0.9272 -0.3746
vn -0.0000 0.9205 0.3907
vn -0.0000 0.3746 0.9272
vn -0.0000 -0.3907 0.9205
vn -0.0000 -0.9272 0.3746
vn -0.0000 -0.9205 -0.3907
vn -0.0000 -0.3746 -0.9272
vn -0.0000 0.3907 -0.9205
vn 1.0000 -0.0000 -0.0000
vn -1.0000 -0.0000 -0.0000
vt 0.094859 0.665895
vt 0.094859 0.615895
vt 0.057430 0.615895
vt 0.057429 0.665895
vt 0.020000 0.615894
vt 0.020000 0.665894
vt 0.319437 0.665897
vt 0.319437 0.615897
vt 0.282007 0.615896
vt 0.282007 0.665896
vt 0.244578 0.615896
vt 0.244578 0.665896
vt 0.207148 0.615896
vt 0.207148 0.665896
vt 0.169719 0.615896
vt 0.169718 0.665896
vt 0.132289 0.615895
vt 0.132289 0.665895
vt 0.159718 0.979719
vt 0.053852 0.935867
vt 0.010000 0.830000
vt 0.159718 0.680281
vt 0.053852 0.724133
vt 0.265585 0.724133
vt 0.309437 0.830000
vt 0.265585 0.935867
s 1
usemtl car4_mat
f 1/1/1 2/2/1 3/3/1 4/4/1
f 4/4/2 3/3/2 5/5/2 6/6/2
f 6/7/3 5/8/3 7/9/3 8/10/3
f 8/10/4 7/9/4 9/11/4 10/12/4
f 10/12/5 9/11/5 11/13/5 12/14/5
f 12/14/6 11/13/6 13/15/6 14/16/6
f 14/16/7 13/15/7 15/17/7 16/18/7
f 16/18/8 15/17/8 2/2/8 1/1/8
f 1/19/9 4/20/9 6/21/9 10/22/9
f 6/21/9 8/23/9 10/22/9
f 10/22/9 12/24/9 14/25/9 1/19/9
f 16/26/9 1/19/9 14/25/9
f 15/26/10 13/25/10 11/24/10 7/23/10
f 11/24/10 9/22/10 7/23/10
f 7/23/10 5/21/10 3/20/10 15/26/10
f 2/19/10 15/26/10 3/20/10
