# Blender 4.5.4 LTS
# www.blender.org
mtllib Car5_Taxi.mtl
o Car5_Taxi
v -0.874799 2.019109 0.410524
v 0.000000 2.019109 0.515716
v 0.000000 2.019109 -1.411598
v -0.874799 2.019109 -1.350216
v -1.151683 1.436884 1.210970
v 0.000000 1.436884 1.316162
v 0.000000 1.436884 -2.042169
v -1.151683 1.436884 -1.980788
v -1.151683 1.214155 3.432553
v 0.000000 1.281993 -3.501236
v -1.231620 1.199518 -2.022254
v -1.231620 1.199518 1.210970
v 0.000000 1.214155 3.528086
v -1.151683 1.281993 -3.446438
v -1.220391 0.770743 -1.315370
v -1.172014 0.351563 -1.164495
v -1.172014 0.351563 1.210970
v -1.231620 0.980281 -1.596089
v -1.231620 0.868042 1.210970
v 0.000000 0.868034 3.528087
v -1.095946 0.472415 3.432553
v -1.197570 1.016695 2.257038
v -1.206559 0.973561 2.020610
v -1.229735 0.973562 -2.056949
v -1.167820 0.770739 2.747829
v -1.115875 0.472418 2.858393
v -1.151683 0.868034 3.432553
v -1.174800 0.817346 2.716612
v -1.151683 0.940304 -3.446438
v -1.222796 0.876019 -2.234601
v 0.000000 0.550178 -3.501236
v -1.198911 0.753151 -2.345546
v -1.143731 0.504783 -2.471313
v -1.231620 0.868042 -1.395773
v -1.189036 0.980278 2.481469
v -1.183319 0.868038 2.658297
v -1.231620 1.016697 -1.820520
v -1.211812 0.868040 1.868436
v -1.095946 0.550178 -3.446438
v -1.204077 0.753151 1.732015
v -1.167283 0.351562 1.492231
v 0.000000 0.472415 3.528087
v -0.633957 0.770743 -1.315370
v -0.633957 0.351563 -1.164495
v -0.633957 0.973561 2.020609
v -0.633957 1.016695 2.257038
v -0.633957 0.770739 2.747828
v -0.633957 0.472418 2.858392
v -0.633957 0.504783 -2.471313
v -0.633957 0.753151 -2.345546
v -0.633957 0.980281 -1.596089
v -0.633957 0.868042 -1.395773
v -0.633957 0.980278 2.481469
v -0.633957 0.868038 2.658296
v -0.633957 0.876019 -2.234601
v -0.633957 0.973562 -2.056950
v -0.633957 1.016697 -1.820521
v -0.633958 0.753151 1.732014
v -0.633958 0.868040 1.868436
v -0.633957 0.351563 1.492230
v -0.633957 0.817346 2.716612
v 0.874799 2.019109 0.410524
v 0.874799 2.019109 -1.350216
v 1.151683 1.436884 1.210970
v 1.151683 1.436884 -1.980788
v 1.151683 1.214155 3.432553
v 1.231620 1.199518 -2.022254
v 1.231620 1.199518 1.210970
v 1.151683 1.281993 -3.446438
v 1.220391 0.770743 -1.315370
v 1.172014 0.351563 1.210970
v 1.172014 0.351563 -1.164495
v 1.231620 0.980281 -1.596089
v 1.231620 0.868042 1.210970
v 1.095946 0.472415 3.432553
v 1.197570 1.016695 2.257038
v 1.206559 0.973561 2.020610
v 1.229735 0.973562 -2.056949
v 1.115875 0.472418 2.858393
v 1.167820 0.770739 2.747829
v 1.174800 0.817346 2.716612
v 1.151683 0.868034 3.432553
v 1.222796 0.876019 -2.234601
v 1.151683 0.940304 -3.446438
v 1.198911 0.753151 -2.345546
v 1.143731 0.504783 -2.471313
v 1.231620 0.868042 -1.395773
v 1.189036 0.980278 2.481469
v 1.183319 0.868038 2.658297
v 1.231620 1.016697 -1.820520
v 1.211812 0.868040 1.868436
v 1.095946 0.550178 -3.446438
v 1.204077 0.753151 1.732015
v 1.167283 0.351562 1.492231
v 0.633957 0.351563 -1.164495
v 0.633957 0.770743 -1.315370
v 0.633957 1.016695 2.257038
v 0.633957 0.973561 2.020609
v 0.633957 0.472418 2.858392
v 0.633957 0.770739 2.747828
v 0.633957 0.753151 -2.345546
v 0.633957 0.504783 -2.471313
v 0.633957 0.868042 -1.395773
v 0.633957 0.980281 -1.596089
v 0.633957 0.868038 2.658296
v 0.633957 0.980278 2.481469
v 0.633957 0.973562 -2.056950
v 0.633957 0.876019 -2.234601
v 0.633957 1.016697 -1.820521
v 0.633958 0.868040 1.868436
v 0.633958 0.753151 1.732014
v 0.633957 0.351563 1.492230
v 0.633957 0.817346 2.716612
v 0.000000 0.779553 3.664399
v -1.213857 0.779553 3.553711
v -1.179274 0.472421 3.522455
v 0.000000 0.472421 3.628235
v -1.214015 0.779553 3.337315
v -1.179432 0.472421 3.337325
v 0.000000 0.779553 3.523597
v -1.136446 0.779553 3.425507
v -1.137965 0.779553 3.337315
v -1.097611 0.472421 3.337325
v 1.179274 0.472421 3.522455
v 1.213857 0.779553 3.553711
v 1.179432 0.472421 3.337325
v 1.214015 0.779553 3.337315
v 1.136446 0.779553 3.425507
v 1.137965 0.779553 3.337315
v 1.097611 0.472421 3.337325
v 1.390602 1.516178 0.860203
v 1.390522 1.517098 0.764267
v 1.179281 1.525396 0.814564
v 1.179361 1.524476 0.910500
v 1.198889 1.369555 0.806227
v 1.172317 1.370598 0.812554
v 1.383559 1.362301 0.762257
v 1.201615 1.368531 0.901533
v 1.383640 1.361380 0.858193
v 1.172398 1.369678 0.908490
v 1.186305 1.326875 0.904468
v 1.184901 1.327847 0.808847
v -1.390602 1.516178 0.860203
v -1.179361 1.524476 0.910500
v -1.179280 1.525396 0.814564
v -1.390521 1.517098 0.764267
v -1.198889 1.369555 0.806227
v -1.383559 1.362300 0.762257
v -1.172317 1.370598 0.812554
v -1.201615 1.368531 0.901533
v -1.172398 1.369678 0.908490
v -1.383640 1.361380 0.858193
v -1.186305 1.326875 0.904468
v -1.184901 1.327847 0.808847
v 0.000000 0.811282 -3.637547
v 0.000000 0.550184 -3.601384
v -1.179274 0.550182 -3.522455
v -1.213857 0.811279 -3.553711
v -1.179432 0.550182 -3.337325
v -1.214015 0.811279 -3.337315
v -1.136446 0.811279 -3.425507
v 0.000000 0.811282 -3.496746
v -1.137965 0.811279 -3.337315
v -1.097611 0.550182 -3.337325
v -1.095946 0.550176 -3.432553
v 1.213857 0.811279 -3.553711
v 1.179274 0.550182 -3.522455
v 1.214015 0.811279 -3.337315
v 1.179432 0.550182 -3.337325
v 1.136446 0.811279 -3.425507
v 1.137965 0.811279 -3.337315
v 1.097611 0.550182 -3.337325
v 1.095946 0.550176 -3.432553
v -0.364692 2.017230 -0.446880
v -0.333608 2.217585 -0.379180
v 0.333608 2.217585 -0.379180
v 0.364692 2.017230 -0.446880
v -0.364692 2.017230 -0.119592
v 0.364692 2.017230 -0.119592
v 0.333608 2.217585 -0.187292
v -0.333608 2.217585 -0.187292
vn -0.0000 1.0000 -0.0000
vn -0.0536 0.8075 0.5874
vn -0.0687 0.8179 0.5712
vn -0.0357 0.7420 -0.6694
vn -0.0475 0.7339 -0.6776
vn -0.9031 0.4295 -0.0000
vn -0.0086 0.9949 0.1000
vn -0.0091 0.9950 0.0998
vn -0.0086 0.9949 0.1001
vn -0.0054 0.9944 -0.1054
vn -0.0000 0.9944 -0.1056
vn -0.0000 0.9944 -0.1053
vn -0.9477 0.3192 -0.0000
vn -0.0083 0.9949 0.1002
vn -0.0050 0.9944 -0.1051
vn -0.9934 -0.1146 -0.0000
vn -0.9453 0.3243 -0.0343
vn -1.0000 -0.0000 -0.0000
vn -0.0847 -0.0048 0.9964
vn -0.0831 -0.0014 0.9965
vn -0.0863 -0.0014 0.9963
vn -0.9472 0.3190 0.0320
vn -0.9992 0.0162 0.0354
vn -0.9992 0.0189 0.0358
vn -0.9993 0.0158 0.0353
vn -0.9993 0.0153 0.0352
vn -0.9984 0.0003 -0.0560
vn -0.9867 -0.1591 0.0342
vn -0.9894 -0.1394 0.0418
vn -0.9983 -0.0000 -0.0586
vn -0.0473 0.0007 -0.9989
vn -0.0475 -0.0000 -0.9989
vn -0.0827 -0.0000 0.9966
vn -0.0494 -0.0056 -0.9988
vn -0.9808 -0.1810 -0.0728
vn -0.9991 0.0095 0.0413
vn -0.9991 0.0134 0.0408
vn -0.9991 0.0098 0.0404
vn -0.9984 0.0222 -0.0512
vn -1.0000 -0.0054 -0.0049
vn -1.0000 -0.0005 -0.0004
vn -0.9995 0.0027 0.0315
vn -0.9995 -0.0000 0.0301
vn -0.9995 0.0009 0.0306
vn -0.0499 -0.0071 -0.9987
vn -0.9884 -0.1412 -0.0550
vn -0.0000 -0.0000 1.0000
vn -0.9992 0.0022 0.0387
vn -0.9938 -0.1075 0.0288
vn -0.9943 -0.1025 0.0300
vn -0.9942 -0.1038 0.0297
vn -0.9937 -0.1082 0.0287
vn -0.9889 -0.1334 -0.0651
vn -0.9919 -0.1201 0.0405
vn -0.9995 0.0037 0.0320
vn -0.9922 -0.1113 0.0556
vn -0.9933 -0.1146 0.0167
vn -0.0868 -0.0000 0.9962
vn -0.9993 0.0031 0.0385
vn -1.0000 -0.0073 -0.0066
vn -0.0000 -1.0000 -0.0000
vn -0.0012 -0.9990 -0.0454
vn -0.0023 -0.9989 -0.0466
vn -0.0000 -0.9989 -0.0473
vn -0.0000 -0.3387 -0.9409
vn -0.0000 -0.9838 0.1795
vn -0.0000 -0.3475 -0.9377
vn -0.0000 -0.4518 0.8921
vn -0.0000 -0.8724 -0.4888
vn -0.0000 -0.8443 -0.5359
vn -0.0000 -0.8766 0.4813
vn -0.0000 -0.9871 -0.1602
vn -0.0000 -0.7649 0.6442
vn -0.0000 -0.5127 0.8586
vn -0.0000 -0.6702 0.7422
vn -0.0000 -0.6370 -0.7709
vn -0.0000 -0.7547 -0.6561
vn -0.0000 -0.8218 0.5698
vn -0.0000 -0.5565 -0.8309
vn 0.0536 0.8075 0.5874
vn 0.0687 0.8179 0.5712
vn 0.0357 0.7420 -0.6694
vn 0.0475 0.7339 -0.6776
vn 0.9031 0.4295 -0.0000
vn 0.0086 0.9949 0.1000
vn 0.0086 0.9949 0.1001
vn 0.0091 0.9950 0.0998
vn 0.0054 0.9944 -0.1054
vn 0.9477 0.3192 -0.0000
vn 0.0083 0.9949 0.1002
vn 0.0050 0.9944 -0.1051
vn 0.9934 -0.1146 -0.0000
vn 0.9453 0.3243 -0.0343
vn 1.0000 -0.0000 -0.0000
vn 0.0847 -0.0048 0.9964
vn 0.0863 -0.0014 0.9963
vn 0.0831 -0.0014 0.9965
vn 0.9472 0.3190 0.0320
vn 0.9992 0.0162 0.0354
vn 0.9993 0.0158 0.0353
vn 0.9992 0.0189 0.0358
vn 0.9993 0.0153 0.0352
vn 0.9984 0.0003 -0.0560
vn 0.9867 -0.1591 0.0342
vn 0.9894 -0.1394 0.0418
vn 0.9983 -0.0000 -0.0586
vn 0.0473 0.0007 -0.9989
vn 0.0475 -0.0000 -0.9989
vn 0.0827 -0.0000 0.9966
vn 0.0494 -0.0056 -0.9988
vn 0.9808 -0.1810 -0.0728
vn 0.9991 0.0095 0.0413
vn 0.9991 0.0098 0.0404
vn 0.9991 0.0134 0.0408
vn 0.9984 0.0222 -0.0512
vn 1.0000 -0.0054 -0.0049
vn 1.0000 -0.0005 -0.0004
vn 0.9995 0.0027 0.0315
vn 0.9995 0.0009 0.0306
vn 0.9995 -0.0000 0.0301
vn 0.0499 -0.0071 -0.9987
vn 0.9884 -0.1412 -0.0550
vn 0.9992 0.0022 0.0387
vn 0.9943 -0.1025 0.0300
vn 0.9937 -0.1082 0.0287
vn 0.9937 -0.1082 0.0286
vn 0.9933 -0.1139 0.0181
vn 0.9889 -0.1334 -0.0651
vn 0.9919 -0.1201 0.0405
vn 0.9995 0.0037 0.0320
vn 0.9922 -0.1113 0.0556
vn 0.9933 -0.1146 0.0167
vn 0.0868 -0.0000 0.9962
vn 0.9993 0.0031 0.0385
vn 1.0000 -0.0073 -0.0066
vn 0.0012 -0.9990 -0.0454
vn 0.0023 -0.9989 -0.0466
vn -0.0000 -0.9961 0.0881
vn -0.0000 -0.9932 -0.1164
vn -0.0000 -0.9990 -0.0440
vn -0.0002 -1.0000 -0.0000
vn -0.0895 -0.1136 0.9895
vn -0.9937 -0.1119 0.0008
vn -0.0000 -0.0000 -1.0000
vn -0.0000 -1.0000 0.0001
vn 0.0895 -0.1136 0.9895
vn 0.9937 -0.1119 0.0008
vn 0.1293 0.9915 0.0132
vn -0.2278 0.0430 -0.9728
vn 0.2278 -0.0432 0.9727
vn 0.2277 -0.0432 0.9728
vn 0.2276 -0.0432 0.9728
vn 0.9913 -0.1320 -0.0024
vn 0.9913 -0.1320 -0.0019
vn -0.9913 0.1318 0.0024
vn -0.9913 0.1318 0.0021
vn -0.1292 -0.9915 -0.0129
vn -0.9962 -0.0867 0.0081
vn -0.2247 0.0676 -0.9721
vn 0.8549 -0.5178 -0.0326
vn 0.8549 -0.5178 -0.0327
vn 0.2246 -0.0676 0.9721
vn 0.1293 0.9915 0.0131
vn -0.2277 0.0431 -0.9728
vn 0.2276 -0.0431 0.9728
vn 0.2277 -0.0430 0.9728
vn 0.9912 -0.1320 -0.0019
vn 0.9912 -0.1320 -0.0010
vn -0.9913 0.1319 0.0020
vn -0.9913 0.1319 0.0010
vn -0.1293 -0.9915 -0.0131
vn -0.9962 -0.0863 0.0080
vn -0.9962 -0.0865 0.0080
vn -0.9962 -0.0864 0.0080
vn -0.2248 0.0675 -0.9721
vn -0.2248 0.0674 -0.9721
vn 0.8549 -0.5178 -0.0329
vn 0.8548 -0.5178 -0.0328
vn 0.8549 -0.5178 -0.0328
vn 0.2248 -0.0676 0.9721
vn -0.0673 -0.1321 -0.9889
vn -0.9913 -0.1314 -0.0008
vn -0.0000 -1.0000 -0.0001
vn 0.0673 -0.1321 -0.9889
vn 0.9913 -0.1314 -0.0008
vn -0.0000 0.3201 -0.9474
vn -0.0000 0.3201 0.9474
vn 0.9882 0.1533 -0.0000
vn -0.9882 0.1533 -0.0000
vt 0.443467 0.258258
vt 0.428771 0.380482
vt 0.698047 0.380480
vt 0.689470 0.258257
vt 0.331632 0.219574
vt 0.316936 0.380483
vt 0.786148 0.380479
vt 0.777571 0.219571
vt 0.769984 0.160307
vt 0.324046 0.160310
vt 0.435881 0.241655
vt 0.681884 0.241654
vt 0.017590 0.219576
vt 0.990002 0.380478
vt 0.660716 0.570562
vt 0.214777 0.570559
vt 0.208984 0.537395
vt 0.660716 0.537398
vt 0.010002 0.380485
vt 0.982345 0.219569
vt 0.307747 0.477489
vt 0.328827 0.418923
vt 0.660717 0.418926
vt 0.010003 0.548916
vt 0.268526 0.506765
vt 0.660716 0.491086
vt 0.779194 0.928630
vt 0.618285 0.976988
vt 0.626073 0.873355
vt 0.974758 0.539446
vt 0.806868 0.511856
vt 0.773836 0.505829
vt 0.204136 0.505825
vt 0.974759 0.435813
vt 0.875440 0.477493
vt 0.890888 0.435813
vt 0.974758 0.491087
vt 0.871078 0.484004
vt 0.010003 0.501177
vt 0.179316 0.492197
vt 0.820060 0.926759
vt 0.820060 0.974498
vt 0.980969 0.974497
vt 0.779193 0.976989
vt 0.980968 0.872251
vt 0.163815 0.475030
vt 0.146244 0.440329
vt 0.296513 0.491083
vt 0.838225 0.506768
vt 0.862931 0.491087
vt 0.237169 0.511852
vt 0.752575 0.491086
vt 0.827847 0.872252
vt 0.010003 0.446670
vt 0.618285 0.928629
vt 0.733515 0.475034
vt 0.700013 0.418926
vt 0.779194 0.873356
vt 0.234479 0.034815
vt 0.233074 0.056574
vt 0.224630 0.056970
vt 0.146247 0.057523
vt 0.131906 0.056574
vt 0.131100 0.034815
vt 0.719661 0.063819
vt 0.726845 0.068227
vt 0.726846 0.014794
vt 0.719662 0.014793
vt 0.741290 0.066148
vt 0.752547 0.066967
vt 0.752548 0.014794
vt 0.741290 0.014794
vt 0.712657 0.058704
vt 0.717921 0.063437
vt 0.717922 0.014793
vt 0.712657 0.014793
vt 0.775896 0.066271
vt 0.781884 0.061243
vt 0.781885 0.014794
vt 0.775896 0.014794
vt 0.730673 0.069251
vt 0.740211 0.069251
vt 0.740212 0.014794
vt 0.730674 0.014794
vt 0.722184 0.064849
vt 0.730604 0.065370
vt 0.730604 0.014794
vt 0.722185 0.014793
vt 0.762155 0.069079
vt 0.770613 0.068447
vt 0.770614 0.014794
vt 0.762155 0.014794
vt 0.750897 0.069251
vt 0.750898 0.014794
vt 0.759793 0.067446
vt 0.766288 0.066741
vt 0.766289 0.014794
vt 0.759793 0.014794
vt 0.777705 0.063389
vt 0.777706 0.014794
vt 0.719408 0.064073
vt 0.719408 0.014793
vt 0.738191 0.075683
vt 0.726286 0.013460
vt 0.758858 0.020644
vt 0.757490 0.069695
vt 0.759265 0.065410
vt 0.728059 0.076827
vt 0.737451 0.011779
vt 0.760632 0.017043
vt 0.768192 0.058915
vt 0.779744 0.040412
vt 0.768193 0.021306
vt 0.764254 0.018530
vt 0.776914 0.029726
vt 0.776392 0.051669
vt 0.777969 0.044696
vt 0.774617 0.055954
vt 0.767038 0.064412
vt 0.766418 0.024472
vt 0.775140 0.034010
vt 0.775778 0.127143
vt 0.324045 0.127146
vt 0.677014 0.067237
vt 0.324044 0.008674
vt 0.655934 0.008671
vt 0.974759 0.138664
vt 0.716236 0.096513
vt 0.324045 0.080834
vt 0.010003 0.125592
vt 0.177893 0.101604
vt 0.210926 0.095577
vt 0.780625 0.095573
vt 0.010003 0.021959
vt 0.093874 0.025561
vt 0.109321 0.067241
vt 0.113683 0.073752
vt 0.010003 0.077234
vt 0.805446 0.081945
vt 0.974758 0.090925
vt 0.820946 0.064778
vt 0.838518 0.030077
vt 0.688248 0.080831
vt 0.146536 0.096516
vt 0.121831 0.080835
vt 0.747592 0.101600
vt 0.232187 0.080834
vt 0.974758 0.036418
vt 0.251247 0.064782
vt 0.284748 0.008674
vt 0.224630 0.012660
vt 0.233074 0.013056
vt 0.146247 0.012107
vt 0.131906 0.013056
vt 0.224630 0.022228
vt 0.224630 0.047401
vt 0.204538 0.047401
vt 0.204538 0.022228
vt 0.165466 0.022228
vt 0.165466 0.047401
vt 0.146247 0.047401
vt 0.146247 0.022228
vt 0.165466 0.058084
vt 0.200402 0.011546
vt 0.165466 0.011546
vt 0.204538 0.011639
vt 0.204538 0.057990
vt 0.200402 0.058084
vt 0.587897 0.946667
vt 0.415140 0.946667
vt 0.419758 0.905654
vt 0.587897 0.905654
vt 0.386243 0.946667
vt 0.386245 0.905654
vt 0.410966 0.905654
vt 0.487179 0.960861
vt 0.588529 0.966138
vt 0.587258 0.984814
vt 0.498221 0.980292
vt 0.491408 0.990793
vt 0.497308 0.991967
vt 0.386395 0.905395
vt 0.376156 0.946001
vt 0.375542 0.904133
vt 0.382528 0.975265
vt 0.370666 0.960861
vt 0.375206 0.986632
vt 0.381554 0.987874
vt 0.469294 0.965944
vt 0.468405 0.979230
vt 0.848688 0.801260
vt 0.848688 0.765053
vt 0.884895 0.765053
vt 0.884895 0.801260
vt 0.972316 0.765053
vt 0.984895 0.765053
vt 0.984895 0.840053
vt 0.884895 0.840053
vt 0.853696 0.765053
vt 0.850434 0.800466
vt 0.849334 0.764577
vt 0.882816 0.764735
vt 0.853696 0.801260
vt 0.853242 0.765053
vt 0.851192 0.801260
vt 0.850965 0.765053
vt 0.587897 0.855030
vt 0.587897 0.896043
vt 0.419758 0.896043
vt 0.415140 0.855030
vt 0.410966 0.896043
vt 0.386245 0.896043
vt 0.386243 0.855030
vt 0.386395 0.896302
vt 0.375542 0.897565
vt 0.376156 0.855696
vt 0.618464 0.772740
vt 0.612275 0.811016
vt 0.479429 0.811016
vt 0.473240 0.772740
vt 0.447174 0.772740
vt 0.452566 0.811016
vt 0.467848 0.811016
vt 0.479429 0.840053
vt 0.612275 0.840053
vt 0.623856 0.811016
vt 0.644530 0.772740
vt 0.639138 0.811016
s 1
usemtl car5_taxi_mat
f 1/1/1 2/2/1 3/3/1
f 3/3/1 4/4/1 1/1/1
f 5/5/2 6/6/2 2/2/2
f 2/2/3 1/1/3 5/5/3
f 7/7/4 8/8/4 4/4/4
f 4/4/5 3/3/5 7/7/5
f 8/9/6 5/10/6 1/11/6
f 1/11/6 4/12/6 8/9/6
f 6/6/7 5/5/8 9/13/9
f 8/8/10 7/7/11 10/14/12
f 5/15/13 8/16/13 11/17/13
f 11/17/13 12/18/13 5/15/13
f 9/13/9 13/19/14 6/6/7
f 10/14/12 14/20/15 8/8/10
f 15/21/16 16/22/16 17/23/16
f 11/17/17 8/16/17 14/24/17
f 18/25/18 19/26/18 12/18/18
f 20/27/19 9/28/20 21/29/21
f 9/30/22 5/15/22 12/18/22
f 22/31/23 9/30/24 12/18/25
f 23/32/26 22/31/23 12/18/25
f 11/17/27 14/24/27 24/33/27
f 21/34/28 25/35/28 26/36/28
f 21/34/29 27/37/29 28/38/29
f 14/24/30 29/39/30 30/40/30
f 29/41/31 14/42/32 10/43/32
f 20/27/19 13/44/33 9/28/20
f 29/41/31 10/43/32 31/45/34
f 19/26/16 15/21/16 17/23/16
f 32/46/35 29/39/35 33/47/35
f 18/25/18 34/48/18 19/26/18
f 35/49/36 36/50/37 27/37/38
f 14/24/39 30/40/39 24/33/39
f 37/51/40 12/18/18 11/17/41
f 12/18/42 19/26/43 38/52/44
f 39/53/45 29/41/31 31/45/34
f 29/39/46 39/54/46 33/47/46
f 37/51/40 18/25/18 12/18/18
f 9/28/47 27/55/47 21/29/47
f 35/49/36 27/37/38 9/30/48
f 40/56/49 38/52/50 19/26/51
f 40/56/49 19/26/51 41/57/52
f 32/46/53 30/40/53 29/39/53
f 19/26/16 34/48/16 15/21/16
f 27/37/54 36/50/54 28/38/54
f 23/32/55 12/18/42 38/52/44
f 21/34/56 28/38/56 25/35/56
f 19/26/57 17/23/57 41/57/57
f 42/58/58 20/27/19 21/29/21
f 9/30/48 22/31/59 35/49/36
f 37/51/40 11/17/41 24/33/60
f 42/59/61 21/60/61 26/61/61
f 33/62/62 39/63/63 31/64/64
f 16/65/65 15/66/65 43/67/65 44/68/65
f 22/69/66 23/70/66 45/71/66 46/72/66
f 26/73/67 25/74/67 47/75/67 48/76/67
f 32/77/68 33/78/68 49/79/68 50/80/68
f 34/81/69 18/82/69 51/83/69 52/84/69
f 36/85/70 35/86/70 53/87/70 54/88/70
f 24/89/71 30/90/71 55/91/71 56/92/71
f 18/82/72 37/93/72 57/94/72 51/83/72
f 38/95/73 40/96/73 58/97/73 59/98/73
f 40/96/74 41/99/74 60/100/74 58/97/74
f 30/90/75 32/77/75 50/80/75 55/91/75
f 15/66/76 34/81/76 52/84/76 43/67/76
f 28/101/77 36/85/77 54/88/77 61/102/77
f 23/70/78 38/95/78 59/98/78 45/71/78
f 25/74/79 28/101/79 61/102/79 47/75/79
f 35/86/72 22/69/72 46/72/72 53/87/72
f 37/93/66 24/89/66 56/92/66 57/94/66
f 49/103/18 44/104/18 43/105/18 50/106/18
f 58/107/18 60/108/18 48/109/18 47/110/18
f 59/111/18 58/107/18 47/110/18 46/112/18
f 54/113/18 46/112/18 47/110/18 61/114/18
f 54/113/18 53/115/18 46/112/18
f 45/116/18 59/111/18 46/112/18
f 57/117/18 56/118/18 55/119/18 43/105/18
f 55/119/18 50/106/18 43/105/18
f 57/117/18 43/105/18 52/120/18 51/121/18
f 62/1/1 3/3/1 2/2/1
f 3/3/1 62/1/1 63/4/1
f 64/5/80 2/2/80 6/6/80
f 2/2/81 64/5/81 62/1/81
f 7/7/82 63/4/82 65/8/82
f 63/4/83 7/7/83 3/3/83
f 65/9/84 62/11/84 64/10/84
f 62/11/84 65/9/84 63/12/84
f 6/6/85 66/13/86 64/5/87
f 65/8/88 10/14/12 7/7/11
f 64/10/89 67/122/89 65/9/89
f 67/122/89 64/10/89 68/123/89
f 66/13/86 6/6/85 13/19/90
f 10/14/12 65/8/88 69/20/91
f 70/124/92 71/125/92 72/126/92
f 67/122/93 69/127/93 65/9/93
f 73/128/94 68/123/94 74/129/94
f 20/27/95 75/29/96 66/28/97
f 66/130/98 68/123/98 64/10/98
f 76/131/99 68/123/100 66/130/101
f 77/132/102 68/123/100 76/131/99
f 67/122/103 78/133/103 69/127/103
f 75/134/104 79/135/104 80/136/104
f 75/134/105 81/137/105 82/138/105
f 69/127/106 83/139/106 84/140/106
f 84/41/107 10/43/108 69/42/108
f 20/27/95 66/28/97 13/44/109
f 84/41/107 31/45/110 10/43/108
f 74/129/92 71/125/92 70/124/92
f 85/141/111 86/142/111 84/140/111
f 73/128/94 74/129/94 87/143/94
f 88/144/112 82/138/113 89/145/114
f 69/127/115 78/133/115 83/139/115
f 90/146/116 67/122/117 68/123/94
f 68/123/118 91/147/119 74/129/120
f 92/53/121 31/45/110 84/41/107
f 84/140/122 86/142/122 92/148/122
f 90/146/116 68/123/94 73/128/94
f 66/28/47 75/29/47 82/55/47
f 88/144/112 66/130/123 82/138/113
f 93/149/124 74/129/124 91/147/124
f 93/149/125 94/150/126 74/129/127
f 85/141/128 84/140/128 83/139/128
f 74/129/92 70/124/92 87/143/92
f 82/138/129 81/137/129 89/145/129
f 77/132/130 91/147/119 68/123/118
f 75/134/131 80/136/131 81/137/131
f 74/129/127 94/150/126 71/125/132
f 42/58/133 75/29/96 20/27/95
f 66/130/123 88/144/112 76/131/134
f 90/146/116 78/133/135 67/122/117
f 42/59/61 79/151/61 75/152/61
f 86/153/136 31/64/64 92/154/137
f 72/65/65 95/68/65 96/67/65 70/66/65
f 76/69/66 97/72/66 98/71/66 77/70/66
f 79/73/67 99/76/67 100/75/67 80/74/67
f 85/77/68 101/80/68 102/79/68 86/78/68
f 87/81/69 103/84/69 104/83/69 73/82/69
f 89/85/70 105/88/70 106/87/70 88/86/70
f 78/89/71 107/92/71 108/91/71 83/90/71
f 73/82/72 104/83/72 109/94/72 90/93/72
f 91/95/73 110/98/73 111/97/73 93/96/73
f 93/96/74 111/97/74 112/100/74 94/99/74
f 83/90/75 108/91/75 101/80/75 85/77/75
f 70/66/76 96/67/76 103/84/76 87/81/76
f 81/101/77 113/102/77 105/88/77 89/85/77
f 77/70/78 98/71/78 110/98/78 91/95/78
f 80/74/79 100/75/79 113/102/79 81/101/79
f 88/86/72 106/87/72 97/72/72 76/69/72
f 90/93/66 109/94/66 107/92/66 78/89/66
f 102/103/94 101/106/94 96/105/94 95/104/94
f 111/107/94 100/110/94 99/109/94 112/108/94
f 97/112/94 106/115/94 105/113/94 100/110/94
f 105/113/94 113/114/94 100/110/94
f 110/111/94 97/112/94 100/110/94 111/107/94
f 98/116/94 97/112/94 110/111/94
f 96/105/94 101/106/94 108/119/94 109/117/94
f 108/119/94 107/118/94 109/117/94
f 103/120/94 96/105/94 109/117/94 104/121/94
f 99/155/138 48/156/138 60/157/138 112/158/138
f 95/159/139 44/160/139 49/161/139 102/162/139
f 31/64/64 86/153/136 102/162/140 49/161/140
f 31/64/64 49/161/140 33/62/62
f 16/163/61 44/160/61 95/159/61 112/158/61
f 71/164/61 112/158/61 95/159/61 72/165/61
f 71/164/61 94/166/61 112/158/61
f 16/163/61 112/158/61 60/157/61 41/167/61
f 16/163/61 41/167/61 17/168/141
f 99/155/61 79/151/61 42/59/61 48/156/61
f 26/61/61 48/156/61 42/59/61
f 114/169/142 115/170/142 116/171/142 117/172/142
f 115/170/143 118/173/143 119/174/143 116/175/143
f 115/176/1 114/177/1 120/178/1 121/179/1
f 118/180/1 115/176/1 121/179/1 122/181/1
f 119/182/144 118/173/144 122/183/144 123/184/144
f 21/185/61 116/186/61 119/187/61 123/188/61
f 117/189/145 116/186/61 21/185/61 42/190/145
f 114/169/146 117/172/146 124/171/146 125/170/146
f 125/170/147 124/175/147 126/174/147 127/173/147
f 125/176/1 128/179/1 120/178/1 114/177/1
f 127/180/1 129/181/1 128/179/1 125/176/1
f 126/182/144 130/184/144 129/183/144 127/173/144
f 75/185/61 130/188/61 126/187/61 124/186/61
f 117/189/145 42/190/145 75/185/61 124/186/61
f 131/191/148 132/192/148 133/193/148 134/194/148
f 135/195/149 136/196/149 133/197/149 137/193/149
f 137/193/149 133/197/149 132/198/149
f 138/199/150 139/193/150 131/194/151 140/192/151
f 140/192/151 131/194/151 134/191/152
f 131/191/153 139/192/154 137/193/154 132/194/154
f 140/200/155 134/200/156 133/201/156 136/202/156
f 139/194/157 138/203/157 135/204/157 137/193/157
f 141/205/158 140/200/158 136/202/158 142/206/158
f 136/196/159 135/195/159 142/206/159
f 142/206/160 135/204/161 138/203/160 141/205/160
f 138/199/162 140/192/162 141/205/162
f 143/191/163 144/194/163 145/193/163 146/192/163
f 147/195/164 148/193/164 145/197/164 149/196/164
f 148/193/164 146/198/164 145/197/164
f 150/199/152 151/192/165 143/194/165 152/193/152
f 151/192/165 144/191/166 143/194/165
f 143/191/167 146/194/168 148/193/167 152/192/167
f 151/200/169 149/202/170 145/201/169 144/200/169
f 152/194/171 148/193/171 147/204/171 150/203/171
f 153/205/172 154/206/173 149/202/174 151/200/174
f 149/196/175 154/206/176 147/195/176
f 154/206/177 153/205/178 150/203/179 147/204/177
f 150/199/180 153/205/180 151/192/180
f 155/207/181 156/208/181 157/209/181 158/210/181
f 158/210/182 157/211/182 159/212/182 160/213/182
f 158/176/1 161/179/1 162/178/1 155/177/1
f 160/180/1 163/181/1 161/179/1 158/176/1
f 159/214/47 164/215/47 163/216/47 160/213/47
f 165/185/61 164/188/61 159/187/61 157/186/61
f 156/189/183 31/190/183 165/185/61 157/186/61
f 155/207/184 166/210/184 167/209/184 156/208/184
f 166/210/185 168/213/185 169/212/185 167/211/185
f 166/176/1 155/177/1 162/178/1 170/179/1
f 168/180/1 166/176/1 170/179/1 171/181/1
f 169/214/47 168/213/47 171/216/47 172/215/47
f 173/185/61 167/186/61 169/187/61 172/188/61
f 156/189/183 167/186/61 173/185/61 31/190/183
f 174/217/186 175/218/186 176/219/186 177/220/186
f 178/220/187 179/217/187 180/218/187 181/219/187
f 177/221/188 176/222/188 180/223/188 179/220/188
f 176/224/1 175/225/1 181/218/1 180/219/1
f 175/226/189 174/217/189 178/227/189 181/228/189
